<svg viewBox="0 0 400 120" xmlns="http://www.w3.org/2000/svg">
  <defs>
    <linearGradient id="textGrad" x1="0%" y1="0%" x2="100%" y2="0%">
      <stop offset="0%" style="stop-color:#1e40af;stop-opacity:1" />
      <stop offset="50%" style="stop-color:#2563eb;stop-opacity:1" />
      <stop offset="100%" style="stop-color:#3b82f6;stop-opacity:1" />
    </linearGradient>
    <filter id="textShadow" x="-50%" y="-50%" width="200%" height="200%">
      <feDropShadow dx="1" dy="1" stdDeviation="2" flood-color="#000" flood-opacity="0.2"/>
    </filter>
  </defs>
  
  <!-- Background subtle accent -->
  <rect x="0" y="0" width="400" height="120" fill="none"/>
  
  <!-- Decorative line above text -->
  <line x1="20" y1="25" x2="380" y2="25" stroke="url(#textGrad)" stroke-width="2" opacity="0.6"/>
  
  <!-- Main text -->
  <text x="200" y="70" 
        font-family="Arial, sans-serif" 
        font-size="42" 
        font-weight="bold" 
        fill="url(#textGrad)" 
        text-anchor="middle" 
        filter="url(#textShadow)">
    jaylakhani
  </text>
  
  <!-- Decorative line below text -->
  <line x1="20" y1="95" x2="380" y2="95" stroke="url(#textGrad)" stroke-width="2" opacity="0.6"/>
  
  <!-- Accent dots -->
  <circle cx="30" cy="60" r="3" fill="#2563eb" opacity="0.7"/>
  <circle cx="370" cy="60" r="3" fill="#2563eb" opacity="0.7"/>
  
  <!-- Subtle corner elements -->
  <path d="M 15 15 L 35 15 L 35 17 L 17 17 L 17 35 L 15 35 Z" fill="#3b82f6" opacity="0.5"/>
  <path d="M 385 15 L 385 35 L 383 35 L 383 17 L 365 17 L 365 15 Z" fill="#3b82f6" opacity="0.5"/>
  <path d="M 15 105 L 15 85 L 17 85 L 17 103 L 35 103 L 35 105 Z" fill="#3b82f6" opacity="0.5"/>
  <path d="M 385 105 L 365 105 L 365 103 L 383 103 L 383 85 L 385 85 Z" fill="#3b82f6" opacity="0.5"/>
</svg>